<svg id="svg" version="1.1" xmlns="http://www.w3.org/2000/svg" xmlns:xlink="http://www.w3.org/1999/xlink" width="400" height="134.51086956521738" viewBox="0, 0, 400,134.51086956521738"><g id="svgg"><path id="path0" d="M285.939 4.823 C 285.048 6.131,280.348 13.010,275.496 20.109 C 263.942 37.014,263.734 37.326,264.211 37.054 C 264.435 36.925,269.889 31.951,276.331 26.000 L 288.043 15.179 288.043 8.812 C 288.043 5.270,287.936 2.446,287.801 2.446 C 287.668 2.446,286.830 3.516,285.939 4.823 M294.699 11.754 C 286.607 19.169,267.744 36.636,265.632 38.669 C 263.386 40.831,262.997 41.047,283.655 28.668 L 301.341 18.071 301.350 12.176 C 301.355 8.935,301.266 6.225,301.153 6.155 C 301.040 6.085,298.135 8.604,294.699 11.754 M285.462 29.860 L 263.451 43.099 263.315 72.152 L 263.179 101.205 259.918 101.256 C 244.298 101.501,231.235 118.380,241.153 125.503 C 249.699 131.641,266.265 124.120,269.982 112.415 C 271.042 109.077,271.739 100.320,271.739 90.343 L 271.739 83.557 285.042 75.578 C 292.359 71.191,298.381 67.513,298.425 67.407 C 298.469 67.301,300.615 65.953,303.193 64.413 L 307.880 61.611 307.880 39.094 C 307.880 26.709,307.789 16.586,307.677 16.599 C 307.565 16.611,297.568 22.579,285.462 29.860 M301.499 34.489 C 301.328 35.271,300.190 36.008,286.765 44.027 C 270.774 53.580,271.739 53.080,271.739 51.808 C 271.739 50.591,271.104 51.029,284.511 43.006 C 302.627 32.166,301.933 32.513,301.499 34.489 M283.967 37.322 C 283.967 38.491,284.028 38.443,277.503 42.346 C 271.790 45.763,271.588 45.827,271.787 44.133 C 271.873 43.397,275.511 40.960,281.929 37.339 C 283.940 36.205,283.967 36.205,283.967 37.322 M301.630 41.430 C 301.630 42.361,301.574 42.406,296.842 45.230 C 291.668 48.318,291.577 48.347,291.824 46.824 C 291.985 45.837,292.136 45.716,296.445 43.146 C 301.459 40.155,301.630 40.098,301.630 41.430 M284.713 52.360 C 284.082 52.991,272.162 60.003,271.943 59.872 C 271.680 59.715,271.686 58.385,271.951 57.968 C 272.063 57.791,275.027 55.934,278.537 53.840 L 284.918 50.033 285.005 51.007 C 285.056 51.584,284.937 52.136,284.713 52.360 M295.648 51.698 C 295.638 53.342,295.593 53.376,284.138 60.238 C 277.991 63.920,272.717 67.187,272.418 67.497 L 271.875 68.062 271.784 67.419 C 271.487 65.336,271.105 65.636,283.637 58.107 C 296.375 50.454,295.654 50.839,295.648 51.698 M301.624 58.628 L 301.617 59.647 296.924 62.432 C 291.518 65.641,291.848 65.528,291.848 64.168 L 291.848 63.118 296.399 60.375 C 301.592 57.245,301.633 57.231,301.624 58.628 M142.391 81.114 L 142.391 88.043 141.031 87.065 C 135.069 82.782,125.512 84.730,121.453 91.056 C 117.622 97.026,118.525 105.913,123.446 110.668 C 128.352 115.407,137.041 116.021,141.672 111.955 C 142.898 110.879,142.935 110.899,142.935 112.636 L 142.935 114.130 146.875 114.130 L 150.815 114.130 150.815 94.158 L 150.815 74.185 146.603 74.185 L 142.391 74.185 142.391 81.114 M158.696 94.158 L 158.696 114.130 162.908 114.130 L 167.120 114.130 167.119 103.329 C 167.119 97.388,167.038 88.400,166.939 83.356 L 166.760 74.185 162.728 74.185 L 158.696 74.185 158.696 94.158 M9.511 95.245 L 9.511 114.130 13.723 114.130 L 17.935 114.130 17.935 102.853 C 17.935 96.651,18.033 91.576,18.152 91.576 C 18.272 91.576,19.095 92.463,19.981 93.546 C 20.867 94.630,23.368 97.665,25.538 100.291 C 27.708 102.917,30.768 106.639,32.337 108.562 C 33.906 110.485,35.602 112.524,36.105 113.094 L 37.020 114.130 40.658 114.130 L 44.297 114.130 44.227 95.313 L 44.158 76.495 39.881 76.420 L 35.604 76.345 35.533 87.823 L 35.462 99.300 32.880 96.195 C 31.461 94.487,29.993 92.701,29.620 92.226 C 28.704 91.063,22.242 83.201,19.090 79.416 L 16.544 76.359 13.028 76.359 L 9.511 76.359 9.511 95.245 M62.015 85.176 C 50.755 87.903,46.601 101.906,54.686 109.884 C 60.669 115.788,72.371 116.335,78.084 110.978 L 79.131 109.997 78.087 108.871 C 77.513 108.251,76.504 107.172,75.846 106.473 L 74.650 105.201 73.637 106.015 C 70.530 108.511,64.179 108.476,61.306 105.947 C 60.347 105.102,58.967 102.959,58.967 102.313 C 58.967 102.236,63.903 102.174,69.936 102.174 L 80.904 102.174 81.071 100.960 C 82.455 90.861,72.521 82.633,62.015 85.176 M96.243 85.161 C 86.522 87.632,81.821 98.111,86.489 106.902 C 90.803 115.023,105.280 117.392,112.112 111.094 L 113.301 109.999 111.105 107.618 L 108.910 105.238 107.552 106.152 C 102.424 109.603,94.912 107.821,93.359 102.785 L 93.170 102.174 104.157 102.174 L 115.144 102.174 115.310 100.960 C 116.682 90.948,106.540 82.544,96.243 85.161 M184.287 85.179 C 172.168 88.112,168.590 103.692,178.305 111.220 C 184.254 115.830,195.087 115.766,200.158 111.092 L 201.350 109.994 199.167 107.606 L 196.984 105.218 195.611 106.142 C 190.440 109.622,181.250 107.175,181.250 102.319 C 181.250 102.239,186.202 102.174,192.255 102.174 L 203.261 102.174 203.294 101.155 C 203.657 89.791,195.067 82.570,184.287 85.179 M315.726 85.071 C 314.014 85.476,311.792 86.589,310.667 87.606 C 309.248 88.887,309.239 88.882,309.239 86.821 L 309.239 85.054 305.299 85.054 L 301.359 85.054 301.359 99.592 L 301.359 114.130 305.571 114.130 L 309.783 114.130 309.783 106.148 C 309.783 94.686,310.789 92.814,317.150 92.446 L 319.293 92.321 319.293 88.552 L 319.293 84.783 318.003 84.810 C 317.293 84.825,316.268 84.942,315.726 85.071 M334.274 85.089 C 326.027 86.459,320.478 94.958,322.429 103.233 C 325.839 117.701,348.374 118.663,353.114 104.542 C 356.979 93.030,347.207 82.940,334.274 85.089 M373.574 85.077 C 372.124 85.419,369.545 86.778,368.771 87.609 C 367.817 88.632,367.663 88.504,367.663 86.685 L 367.663 85.054 363.723 85.054 L 359.783 85.054 359.783 104.891 L 359.783 124.728 363.995 124.728 L 368.207 124.728 368.207 118.072 L 368.207 111.417 369.438 112.357 C 376.555 117.790,388.465 113.338,390.806 104.370 C 393.828 92.795,384.611 82.475,373.574 85.077 M69.661 91.946 C 71.557 93.057,73.847 96.443,73.165 97.125 C 72.638 97.652,58.967 97.272,58.967 96.730 C 58.967 92.579,65.644 89.592,69.661 91.946 M102.415 91.327 C 104.712 92.015,106.920 94.275,107.243 96.268 L 107.408 97.283 100.307 97.283 C 92.299 97.283,92.693 97.407,93.629 95.168 C 94.915 92.088,98.998 90.304,102.415 91.327 M191.576 91.810 C 193.226 92.662,193.954 93.375,194.728 94.896 C 196.012 97.418,196.372 97.283,188.361 97.283 C 180.428 97.283,180.883 97.387,181.455 95.708 C 182.763 91.869,187.877 89.900,191.576 91.810 M138.290 92.406 C 143.893 94.817,144.011 104.085,138.475 106.918 C 132.615 109.917,126.644 104.973,127.745 98.033 C 128.552 92.942,133.455 90.326,138.290 92.406 M340.124 91.981 C 345.176 93.481,347.135 100.049,343.946 104.798 C 341.543 108.378,335.470 108.788,332.637 105.562 C 327.206 99.376,332.526 89.725,340.124 91.981 M378.647 92.357 C 381.195 93.492,382.880 96.426,382.880 99.728 C 382.880 109.877,369.090 110.704,368.036 100.618 C 367.372 94.269,373.037 89.859,378.647 92.357 " stroke="none" fill="#000000" fill-rule="evenodd"></path></g></svg>