<svg id="svg" version="1.1" xmlns="http://www.w3.org/2000/svg" xmlns:xlink="http://www.w3.org/1999/xlink" width="400" height="630.6122448979592" viewBox="0, 0, 400,630.6122448979592"><g id="svgg"><path id="path0" d="M228.839 21.173 C 226.067 25.523,205.128 57.640,182.308 92.545 C 159.488 127.450,140.816 156.291,140.816 156.635 C 140.816 156.980,161.939 136.745,187.755 111.668 L 234.694 66.074 234.694 39.670 C 234.694 25.147,234.510 13.265,234.286 13.265 C 234.061 13.265,231.610 16.824,228.839 21.173 M218.878 92.935 C 182.398 128.293,149.796 159.999,146.429 163.392 L 140.306 169.562 147.959 164.865 C 152.168 162.281,185.000 141.687,220.918 119.101 L 286.224 78.036 286.498 53.304 C 286.648 39.701,286.418 28.589,285.988 28.610 C 285.557 28.631,255.357 57.577,218.878 92.935 M299.490 79.436 C 292.755 83.759,268.418 99.102,245.408 113.532 C 222.398 127.961,189.107 148.858,171.429 159.969 L 139.286 180.172 139.029 338.300 L 138.772 496.429 127.294 496.116 C 69.599 494.546,15.393 558.177,48.460 588.658 C 73.472 611.713,129.690 597.465,153.982 561.913 C 170.133 538.276,171.386 528.458,171.410 425.337 L 171.429 344.041 226.276 309.611 C 256.441 290.674,288.123 270.778,296.680 265.396 L 312.237 255.612 312.241 163.520 C 312.243 112.870,312.130 71.462,311.990 71.502 C 311.849 71.542,306.224 75.113,299.490 79.436 M287.556 143.467 L 287.245 148.159 229.592 184.279 L 171.939 220.398 171.618 215.578 C 171.442 212.927,171.672 210.610,172.128 210.429 C 172.585 210.249,198.444 194.076,229.592 174.491 C 293.442 134.342,287.967 137.272,287.556 143.467 M219.189 156.727 L 218.878 161.414 195.408 176.134 L 171.939 190.854 171.618 186.010 C 171.442 183.346,171.672 181.026,172.128 180.854 C 172.585 180.683,183.061 174.140,195.408 166.315 C 221.167 149.990,219.594 150.624,219.189 156.727 M287.755 172.884 L 287.755 177.401 268.888 189.211 C 246.974 202.928,248.785 202.275,249.179 196.323 L 249.490 191.626 267.857 180.020 C 289.114 166.589,287.755 167.076,287.755 172.884 M222.257 218.487 C 221.521 218.917,209.898 226.169,196.429 234.603 L 171.939 249.936 171.620 245.197 C 171.411 242.077,171.759 240.191,172.641 239.676 C 173.377 239.246,185.000 231.994,198.469 223.561 L 222.959 208.227 223.278 212.966 C 223.487 216.086,223.139 217.972,222.257 218.487 M264.286 217.259 C 264.286 222.140,264.156 222.354,259.439 225.277 C 256.773 226.929,235.856 240.051,212.957 254.438 L 171.322 280.596 171.631 275.484 L 171.939 270.372 217.857 241.415 C 243.112 225.488,263.890 212.410,264.031 212.351 C 264.171 212.293,264.286 214.501,264.286 217.259 M287.755 243.261 L 287.755 247.746 269.212 259.332 C 259.013 265.705,250.262 271.080,249.764 271.279 C 249.266 271.477,249.001 269.457,249.174 266.790 L 249.490 261.941 267.857 250.366 C 289.064 237.002,287.755 237.469,287.755 243.261 " stroke="none" fill="#fff" fill-rule="evenodd"></path></g></svg>